<?xml version="1.0" encoding="UTF-8"?>
<svg id="Layer_1" data-name="Layer 1" xmlns="http://www.w3.org/2000/svg" viewBox="0 0 4251.97 1535.81">
  <defs>
    <style>
      .cls-1 {
        fill: none;
      }
    </style>
  </defs>
  <rect class="cls-1" x="1358.08" y="-1358.08" width="1535.81" height="4251.97" transform="translate(2893.89 -1358.08) rotate(90)"/>
  <g>
    <path d="M368.55,659.33c-53.6-12.32-53.6-88.84,0-101.15l228.22-48.89c56.39-12.96,100.35-118.68,133.01-160.9,33.77-43.65,111.91-10.17,104.51,44.57-9.63,71.24-17.26,148.81-17.26,215.8s7.63,144.56,17.26,215.8c7.4,54.74-70.74,88.22-104.51,44.57-32.66-42.22-76.63-147.94-133.01-160.9l-228.22-48.89Z"/>
    <path d="M1040.23,409.98c0,29.4-23.78,53.24-53.13,53.24s-53.13-23.84-53.13-53.24,23.78-53.24,53.13-53.24c29.34,0,53.13,23.84,53.13,53.24Z"/>
    <path d="M1210.23,409.98c0,15.68-12.69,28.4-28.33,28.4s-28.33-12.71-28.33-28.4,12.68-28.4,28.33-28.4,28.33,12.71,28.33,28.4Z"/>
    <path d="M1210.23,803.97c0,15.68-12.69,28.4-28.33,28.4s-28.33-12.71-28.33-28.4,12.68-28.4,28.33-28.4,28.33,12.71,28.33,28.4Z"/>
    <path d="M1401.48,605.2c0,15.68-12.69,28.39-28.33,28.39s-28.33-12.71-28.33-28.39,12.69-28.4,28.33-28.4,28.33,12.71,28.33,28.4Z"/>
    <path d="M1068.56,606.98c0,46.07-37.26,83.41-83.23,83.41-45.97,0-83.23-37.35-83.23-83.41s37.27-83.41,83.23-83.41,83.23,37.34,83.23,83.41Z"/>
    <path d="M1040.23,803.97c0,29.4-23.78,53.24-53.13,53.24s-53.13-23.84-53.13-53.24,23.78-53.24,53.13-53.24,53.13,23.84,53.13,53.24Z"/>
    <path d="M1235.02,605.2c0,29.4-23.78,53.24-53.13,53.24s-53.12-23.84-53.12-53.24,23.78-53.24,53.12-53.24,53.13,23.84,53.13,53.24Z"/>
    <path d="M1804.19,800.62c-33.15,0-62.45-6.85-87.9-20.56-25.45-13.7-45.38-32.98-59.79-57.81-14.4-24.83-21.61-53.93-21.61-87.3s7.2-61.98,21.61-86.41c14.41-24.43,34.33-43.2,59.79-56.32,25.45-13.31,54.75-19.96,87.9-19.96,24.86,0,46.86,3.67,66,11.02,19.14,7.35,35.22,17.18,48.24,29.5,13.22,12.12,23.28,25.53,30.19,40.23,6.91,14.5,10.36,29,10.36,43.5v2.38h-77.25c0-.99-.1-2.09-.29-3.28-.2-1.19-.4-2.38-.59-3.58-1.58-10.13-5.62-19.27-12.13-27.41-6.51-8.34-15.19-15-26.04-19.96-10.85-4.97-23.97-7.45-39.36-7.45-16.38,0-31.37,3.67-44.99,11.02-13.42,7.15-24.17,17.98-32.26,32.48-7.89,14.5-11.84,32.58-11.84,54.23s3.95,39.73,11.84,54.83c7.89,14.9,18.55,26.32,31.96,34.27,13.61,7.75,28.71,11.62,45.28,11.62,17.56,0,31.86-2.68,42.91-8.04,11.25-5.56,19.73-12.91,25.45-22.05,5.72-9.34,8.98-19.47,9.77-30.39h77.54c0,14.7-3.35,29.5-10.06,44.4-6.71,14.7-16.58,28.21-29.6,40.52-13.02,12.31-29.2,22.15-48.54,29.5-19.14,7.35-41.34,11.02-66.59,11.02Z"/>
    <path d="M2177.88,800.33c-33.15,0-62.35-6.95-87.61-20.86-25.25-14.11-45.08-33.57-59.49-58.4-14.21-24.83-21.31-53.24-21.31-85.22s7.1-60.49,21.31-84.92c14.41-24.63,34.23-43.9,59.49-57.81,25.26-13.91,54.46-20.86,87.61-20.86s62.35,6.95,87.61,20.86c25.26,13.91,44.99,33.17,59.19,57.81,14.4,24.43,21.61,52.74,21.61,84.92s-7.2,60.39-21.61,85.22c-14.21,24.83-33.94,44.3-59.19,58.4-25.25,13.91-54.46,20.86-87.61,20.86ZM2177.88,736.27c17.96,0,33.64-4.17,47.06-12.51,13.42-8.35,23.88-19.96,31.37-34.86,7.5-15.1,11.25-32.78,11.25-53.04s-3.75-37.74-11.25-52.44c-7.5-14.9-17.96-26.42-31.37-34.56-13.42-8.14-29.1-12.22-47.06-12.22s-33.44,4.07-47.06,12.22c-13.42,8.14-23.88,19.67-31.37,34.56-7.5,14.7-11.25,32.18-11.25,52.44s3.75,37.94,11.25,53.04c7.5,14.9,17.96,26.52,31.37,34.86,13.61,8.34,29.3,12.51,47.06,12.51Z"/>
    <path d="M2608.39,475.24c-7.3-1.99-17.36-2.98-30.19-2.98-16.18,0-30.58,2.58-43.21,7.75-12.63,5.16-23.38,12.42-32.26,21.75-5.4,5.55-10.12,11.7-14.21,18.43v-42.56h-77.84v316.44h77.84v-157.33c0-10.93,1.38-21.85,4.14-32.78,2.76-11.12,7.3-21.26,13.61-30.39,6.31-9.34,14.8-16.69,25.45-22.05,10.85-5.56,24.27-8.34,40.25-8.34s36.71,5.29,36.71,5.29c0,0,10.24-51.76,13.6-68.76-1.78-1.19-6.41-2.68-13.91-4.47Z"/>
    <path d="M2781.48,796.76c-11.64-2.19-22.29-6.26-31.96-12.22-9.67-5.96-17.46-14.7-23.38-26.22-5.92-11.52-8.88-26.72-8.88-45.59v-164.25h-74.28l14.3-70.84h15.89c10.26,0,18.35-.4,24.27-1.19,5.92-.99,10.26-3.18,13.02-6.56,2.76-3.38,4.54-8.64,5.33-15.79.99-7.35,1.48-17.48,1.48-30.39v-50.36h78.14v104.29h77.06v70.84h-77.06v91.67c0,7.2,0,45.47,3.28,76.22,2.87,26.87,55.84,19.36,72.29,12.26v65.45c-27.45,10.18-60.86,8.05-89.48,2.68Z"/>
    <path d="M2946.22,794.07v-316.44h76.95v316.44h-76.95Z"/>
    <path d="M3255.69,800.63c-33.15,0-62.45-6.85-87.9-20.56-25.45-13.71-45.38-32.98-59.79-57.81-14.4-24.83-21.6-53.93-21.6-87.31s7.2-61.98,21.6-86.41c14.41-24.43,34.33-43.21,59.79-56.32,25.45-13.31,54.75-19.96,87.9-19.96,24.86,0,46.86,3.67,66,11.02,19.14,7.35,35.22,17.18,48.25,29.5,13.22,12.12,23.28,25.53,30.19,40.23,6.91,14.5,10.34,29,10.34,43.5v2.38h-77.23c0-.99-.1-2.09-.29-3.28-.2-1.19-.4-2.38-.59-3.58-1.58-10.13-5.62-19.27-12.13-27.41-6.51-8.34-15.19-15-26.04-19.96-10.85-4.97-23.97-7.45-39.36-7.45-16.38,0-31.37,3.67-44.99,11.02-13.42,7.15-24.17,17.98-32.26,32.48-7.89,14.5-11.84,32.58-11.84,54.23s3.95,39.73,11.84,54.83c7.89,14.9,18.55,26.32,31.96,34.27,13.61,7.75,28.71,11.62,45.28,11.62,17.56,0,31.86-2.68,42.91-8.04,11.25-5.56,19.73-12.91,25.45-22.05,5.72-9.34,8.98-19.47,9.77-30.39h77.53c0,14.7-3.33,29.5-10.06,44.4-6.7,14.7-16.55,28.21-29.59,40.52-13.02,12.31-29.2,22.15-48.53,29.5-19.14,7.35-41.34,11.02-66.59,11.02Z"/>
    <path d="M3781.21,785.13c-2.76-4.37-5.12-9.73-7.09-16.09-1.58-5.76-2.67-12.22-3.27-19.37-.39-7.35-.58-14.8-.58-22.35v-144.22c0-24.63-6.82-45.19-20.43-61.68s-31.68-28.8-54.17-36.95-47.23-12.22-74.27-12.22c-29.01,0-54.96,4.47-77.85,13.41-22.89,8.94-40.92,22.05-54.14,39.33-13.04,17.08-19.55,38.04-19.55,62.87h76.97c0-18.28,6.31-31.58,18.92-39.93,12.85-8.54,31.19-12.81,55.05-12.81s40.26,3.77,52.69,11.32c12.43,7.55,18.64,18.28,18.64,32.18v.6c0,7.35-7.18,12.71-21.58,16.09-14.22,3.18-39.29,6.56-75.18,10.13-24.28,2.19-46.38,7.15-66.3,14.9-19.95,7.55-35.83,18.37-47.65,32.48-11.64,13.91-17.46,31.68-17.46,53.33,0,19.86,5.03,36.85,15.1,50.96,10.06,14.1,23.98,24.93,41.71,32.48,17.76,7.35,38.38,11.02,61.87,11.02,19.73,0,37.98-2.48,54.75-7.45,16.76-4.97,31.19-11.92,43.23-20.86,5.44-4.07,10.26-8.44,14.46-13.11.88,4.34,1.96,8.52,3.27,12.51,1.97,5.36,4.15,10.13,6.52,14.3,2.58,3.97,4.55,6.65,5.91,8.05h76.97c-1.58-1.59-3.76-4.57-6.52-8.94ZM3679.99,704.98c-8.49,11.52-19.64,20.07-33.44,25.62-13.82,5.56-28.8,8.35-44.99,8.35-19.95,0-34.83-3.28-44.68-9.83-9.88-6.55-14.82-16.39-14.82-29.5s5.82-23.24,17.46-29.2c11.85-5.96,29.4-10.03,52.69-12.22,18.16-1.79,36.1-4.17,53.87-7.15,9.64-1.72,18.52-3.69,26.65-5.88v14.82c0,18.28-4.24,33.27-12.73,44.99Z"/>
    <path d="M3923.62,328.35v465.73h-76.66v-465.73h76.66Z"/>
    <path d="M2951.84,416.65c9.47,6.75,20.52,10.13,33.15,10.13s23.28-3.38,32.55-10.13c9.28-6.95,13.91-16.59,13.91-28.9s-4.64-21.55-13.91-28.31c-9.27-6.75-20.13-10.13-32.55-10.13s-23.68,3.38-33.15,10.13c-9.27,6.75-13.91,16.19-13.91,28.31s4.64,21.95,13.91,28.9Z"/>
    <polygon points="2803.22 1135.57 2803.22 961.31 2732.27 961.31 2732.27 1202 2941.46 1202 2941.46 1135.57 2803.22 1135.57"/>
    <path d="M3221.43,1202h75.82l-102.31-240.7h-93.79l-102,240.7h75.51l17.29-43.33h112.25l17.23,43.33ZM3115.78,1098.99l32.4-81.19,32.28,81.19h-64.69Z"/>
    <path d="M3603.44,1101.23c-5.7-9.2-14.31-16.37-25.89-21.5-4.07-1.88-8.49-3.45-13.25-4.72,1.43-.74,2.81-1.52,4.13-2.34,10.13-6.42,17.34-14.23,21.61-23.43,4.46-9.2,6.7-18.93,6.7-29.2,0-18.4-6-32.73-17.98-43-11.76-10.48-28.22-15.72-49.32-15.72h-167.49l17.37,117.14-17.37,123.56h173.88c16.85,0,30.95-2.89,42.32-8.66,11.37-5.99,19.79-14.12,25.28-24.39,5.67-10.48,8.52-22.25,8.52-35.3s-2.85-23.21-8.52-32.42ZM3519.08,1017.79c3.88,3.64,5.79,8.24,5.79,13.8,0,6.63-2.12,11.98-6.4,16.05-4.24,4.07-9.52,6.1-15.82,6.1h-59.54l-6.45-41.72h66.59c6.91,0,12.19,1.92,15.82,5.77ZM3533.42,1145.2c-4.49,4.07-10.67,6.1-18.58,6.1h-78.48l6.99-48.14h69.37c8.91,0,15.7,2.35,20.4,7.06,4.67,4.49,7,10.27,7,17.33,0,7.49-2.24,13.37-6.7,17.65Z"/>
    <path d="M3683.68,1123.05h71.84c.82,5.56,3.36,10.48,7.64,14.76,4.46,4.07,10.43,7.27,17.95,9.63,7.52,2.14,16.34,3.21,26.49,3.21,14.01,0,24.86-1.71,32.59-5.13,7.91-3.43,11.88-8.67,11.88-15.73,0-4.92-2.24-8.88-6.7-11.87-4.49-3.21-13.31-5.35-26.49-6.42l-40.2-3.53c-32.89-2.57-56.75-10.06-71.57-22.47-14.61-12.62-21.92-29.52-21.92-50.71,0-17.33,4.76-31.77,14.31-43.33,9.55-11.77,22.86-20.65,39.89-26.64,17.07-5.99,37.13-8.99,60.3-8.99s42.11,3.32,59.39,9.95c17.43,6.63,31.25,16.05,41.41,28.24,10.34,11.98,16.04,25.99,17.04,42.04h-71.84c-.82-4.71-3.15-8.77-7-12.2-3.67-3.64-8.94-6.42-15.85-8.35-6.88-1.92-15.13-2.89-24.65-2.89-12.61,0-22.64,1.6-30.16,4.81-7.31,3.21-10.94,8.02-10.94,14.44,0,4.7,2.12,8.56,6.4,11.55,4.46,3,12.58,5.03,24.34,6.1l44.17,3.85c21.92,1.71,39.56,5.35,52.96,10.91,13.61,5.35,23.46,12.73,29.56,22.14,6.09,9.2,9.12,20.86,9.12,34.98,0,17.12-4.88,32.2-14.61,45.25-9.76,12.84-23.46,22.89-41.11,30.17-17.46,7.06-37.95,10.59-61.51,10.59s-45.38-3.53-63.63-10.59c-18.28-7.06-32.59-16.9-42.96-29.52-10.34-12.84-15.73-27.6-16.13-44.29Z"/>
  </g>
</svg>